<svg width="1440" height="2270" viewBox="0 0 1440 2270" fill="none" xmlns="http://www.w3.org/2000/svg">
<path d="M1.4463 312.99L1.44629 0.0118408L597.772 0.0119171C597.772 0.0119171 531.554 110.838 384.097 202.006C250.506 284.601 1.4463 312.99 1.4463 312.99Z" fill="#D6E4FE"/>
<path d="M-5.05011 272.029V-3.69197L644.07 -3.692C644.07 -3.692 529.463 71.5968 382.006 162.764C248.415 245.359 -5.05011 272.029 -5.05011 272.029Z" fill="#A7C2F5"/>
<path d="M867.368 1224.68C1200.88 956.794 1439.16 290.369 1439.16 290.369V2229.73H-5.05011V1575.42C-5.05011 1575.42 581.084 1454.64 867.368 1224.68Z" fill="#D6E4FE"/>
<path d="M949.894 1255.73C1229.67 1015.53 1439.16 448.158 1439.16 448.158V2275.52H-5.05011V1621.21C-5.05011 1621.21 646.931 1515.85 949.894 1255.73Z" fill="#A7C2F5"/>
</svg>
