<svg width="327" height="189" viewBox="0 0 327 189" fill="none" xmlns="http://www.w3.org/2000/svg">
<path d="M179.717 63.862C153.413 64.395 116.671 87.6083 116.671 87.6083L91.1283 141.784C91.1283 141.784 118.132 159.053 137.489 159.337C160.159 159.67 168.463 138.72 191.069 136.981C213.699 135.24 224.801 151.352 247.493 150.915C265.274 150.573 276.679 150.03 291.903 140.839C317.808 125.201 326.503 71.5114 326.503 71.5114C326.503 71.5114 288.987 100.563 260.728 101.858C225.821 103.457 214.653 63.1542 179.717 63.862Z" fill="#A37F49"/>
<mask id="mask0_13_40" style="mask-type:alpha" maskUnits="userSpaceOnUse" x="91" y="63" width="236" height="97">
<path d="M179.717 63.862C153.413 64.395 116.671 87.6083 116.671 87.6083L91.1284 141.784C91.1284 141.784 118.132 159.053 137.489 159.337C160.159 159.67 168.463 138.72 191.069 136.981C213.7 135.24 224.801 151.352 247.493 150.915C265.274 150.573 276.679 150.03 291.904 140.839C317.808 125.201 326.503 71.5114 326.503 71.5114C326.503 71.5114 288.987 100.563 260.728 101.858C225.821 103.457 214.653 63.1542 179.717 63.862Z" fill="#A37F49"/>
</mask>
<g mask="url(#mask0_13_40)">
<path d="M282.724 104.117L288.922 94.199V60.1053H337.893V123.334H307.519H294.634L298.841 115.895H288.922L292.642 109.696H288.922L292.642 104.117H282.724Z" fill="#D9D9D9"/>
</g>
<path d="M68.9345 184.836C68.2921 186.344 66.1685 186.384 65.4702 184.9L14.3757 76.3665C5.21099 56.899 -3.50844 35.3622 2.5222 14.7077C4.30341 8.60721 7.26196 3.3341 12.0866 0.775851C13.087 0.245379 14.2929 0.634737 14.9537 1.55431L45.6932 44.3334C46.8821 45.988 48.7948 46.9689 50.8322 46.9689H127.656L68.9345 184.836Z" fill="#A37F49"/>
<path d="M65.0681 184.878C65.7177 186.377 67.8318 186.41 68.5277 184.932L119.637 76.3665C128.802 56.899 137.521 35.3622 131.491 14.7077C129.709 8.60721 126.751 3.3341 121.926 0.775851C120.926 0.245379 119.72 0.634737 119.059 1.55431L88.3197 44.3334C87.1308 45.988 85.218 46.9689 83.1806 46.9689H5.31399L65.0681 184.878Z" fill="#A37F49"/>
<path d="M98.1638 78.5711C97.2131 75.7272 98.1638 70.8928 98.1638 70.8928C98.1638 70.8928 90.1755 72.8778 85.6242 75.4008C81.1291 77.8926 75.2697 83.524 75.2697 83.524C75.2697 83.524 83.7624 85.5179 89.2822 85.3993C94.0395 85.2971 101.322 83.524 101.322 83.524C101.322 83.524 98.891 80.7467 98.1638 78.5711Z" fill="#D9D9D9"/>
<path d="M35.8488 78.5711C36.7994 75.7272 35.8488 70.8928 35.8488 70.8928C35.8488 70.8928 43.8371 72.8778 48.3884 75.4008C52.8835 77.8926 58.7429 83.524 58.7429 83.524C58.7429 83.524 50.2501 85.5179 44.7304 85.3993C39.9731 85.2971 32.691 83.524 32.691 83.524C32.691 83.524 35.1215 80.7467 35.8488 78.5711Z" fill="#D9D9D9"/>
<path d="M125.491 102.753C123.2 102.753 121.42 103.634 120.151 105.398C118.882 107.144 118.248 110.193 118.248 114.544C118.248 122.882 120.547 127.052 125.144 127.052C126.941 127.052 128.556 126.763 129.989 126.187V120.476C128.424 119.949 127.361 119.323 126.801 118.598L127.32 114.593H139.16L139.679 118.598C139.234 119.142 138.435 119.661 137.282 120.155V129.524C135.667 130.71 133.887 131.551 131.942 132.045C129.998 132.523 127.575 132.762 124.675 132.762C119.846 132.762 116.303 131.394 114.045 128.659C111.788 125.906 110.659 121.432 110.659 115.236C110.659 109.04 112.002 104.458 114.688 101.492C117.391 98.5091 121.074 97.0177 125.738 97.0177C130.418 97.0177 134.233 98.0889 137.183 100.231V101.368C137.183 101.747 137.125 102.332 137.01 103.123C136.911 103.898 136.763 104.714 136.565 105.571C136.367 106.411 136.12 107.128 135.823 107.721H131.151C130.64 106.732 130.303 105.332 130.138 103.519C128.704 103.008 127.155 102.753 125.491 102.753ZM141.954 110.959L142.448 107.054C144.36 106.609 146.123 106.386 147.738 106.386C148.545 106.386 149.287 106.403 149.963 106.436C150.638 106.452 151.256 106.493 151.817 106.559V126.755C153.135 127.25 154.066 127.818 154.61 128.461L154.116 132.366H142.448L141.954 128.461C142.415 127.818 143.346 127.25 144.747 126.755V112.665C143.544 112.27 142.613 111.701 141.954 110.959ZM156.093 110.959L156.612 107.054C158.524 106.609 160.279 106.386 161.877 106.386C162.685 106.386 163.427 106.403 164.102 106.436C164.794 106.452 165.421 106.493 165.981 106.559V132.366C165.981 134.97 165.66 137.038 165.017 138.571C164.391 140.12 163.377 141.224 161.976 141.883C160.576 142.559 158.722 142.897 156.414 142.897C155.36 142.897 154.396 142.815 153.522 142.65L154.14 137.681C154.256 137.698 154.462 137.706 154.758 137.706C155.055 137.722 155.442 137.731 155.92 137.731C156.859 137.731 157.585 137.376 158.095 136.668C158.623 135.959 158.886 134.674 158.886 132.811V112.665C157.683 112.27 156.752 111.701 156.093 110.959ZM179.898 111.207C177.673 111.207 176.561 111.866 176.561 113.184C176.561 114.437 177.731 115.36 180.071 115.953L184.051 117.016C188.171 118.103 190.231 120.485 190.231 124.16C190.231 126.681 189.349 128.749 187.586 130.364C186.696 131.155 185.501 131.748 184.001 132.144C182.502 132.523 180.887 132.729 179.156 132.762C177.442 132.795 175.778 132.671 174.163 132.391C172.548 132.111 171.188 131.699 170.084 131.155C170.068 130.974 170.051 130.793 170.035 130.611C170.035 130.414 170.035 130.224 170.035 130.043C170.035 128.181 170.406 126.508 171.147 125.025H175.35C175.811 125.865 176.099 126.706 176.215 127.546C176.857 127.76 177.821 127.868 179.107 127.868C182.073 127.868 183.556 127.019 183.556 125.321C183.556 124.794 183.359 124.349 182.963 123.987C182.535 123.641 181.735 123.294 180.565 122.948L176.561 121.787C174.501 121.21 172.894 120.361 171.74 119.24C170.603 118.103 170.035 116.431 170.035 114.222C170.035 111.998 170.933 110.185 172.729 108.784C173.619 108.076 174.732 107.548 176.066 107.202C177.418 106.856 178.86 106.675 180.392 106.658C181.925 106.625 183.425 106.741 184.891 107.004C186.358 107.252 187.668 107.622 188.822 108.117C188.838 108.282 188.846 108.446 188.846 108.611C188.863 108.776 188.871 108.949 188.871 109.13C188.871 110.861 188.5 112.484 187.759 114H183.606C183.144 113.192 182.856 112.377 182.741 111.553C181.768 111.322 180.821 111.207 179.898 111.207ZM233.366 103.568L223.849 132.614H216.928L207.312 103.346C205.861 102.835 204.914 102.266 204.469 101.64L204.963 97.438H216.829L217.323 101.64C216.845 102.299 215.988 102.835 214.752 103.247L219.053 118.252C219.416 119.405 219.704 120.526 219.919 121.614C220.133 122.685 220.281 123.706 220.364 124.679L220.413 125.544H221.13C221.163 123.484 221.583 121.086 222.391 118.351L226.889 103.296C225.621 102.884 224.731 102.332 224.22 101.64L224.714 97.438H236.258L236.777 101.64C236.167 102.382 235.03 103.025 233.366 103.568ZM258.901 119.092C258.901 122.388 258.341 125.041 257.22 127.052C256.1 129.046 254.575 130.496 252.647 131.402C250.735 132.292 248.577 132.737 246.171 132.737C242.413 132.737 239.521 131.74 237.494 129.746C235.484 127.736 234.478 124.366 234.478 119.636C234.478 115.384 235.591 112.162 237.815 109.971C240.057 107.762 243.114 106.658 246.986 106.658C250.941 106.658 253.916 107.631 255.91 109.575C257.904 111.52 258.901 114.692 258.901 119.092ZM241.845 119.512C241.845 124.901 243.468 127.596 246.714 127.596C248.362 127.596 249.582 126.986 250.373 125.766C251.164 124.53 251.559 122.512 251.559 119.71C251.559 114.453 249.903 111.825 246.591 111.825C244.976 111.825 243.781 112.41 243.006 113.58C242.232 114.733 241.845 116.711 241.845 119.512ZM271.557 111.207C269.333 111.207 268.22 111.866 268.22 113.184C268.22 114.437 269.39 115.36 271.73 115.953L275.71 117.016C279.83 118.103 281.89 120.485 281.89 124.16C281.89 126.681 281.008 128.749 279.245 130.364C278.355 131.155 277.16 131.748 275.661 132.144C274.161 132.523 272.546 132.729 270.816 132.762C269.102 132.795 267.437 132.671 265.822 132.391C264.207 132.111 262.848 131.699 261.744 131.155C261.727 130.974 261.711 130.793 261.694 130.611C261.694 130.414 261.694 130.224 261.694 130.043C261.694 128.181 262.065 126.508 262.807 125.025H267.009C267.47 125.865 267.759 126.706 267.874 127.546C268.517 127.76 269.481 127.868 270.766 127.868C273.733 127.868 275.216 127.019 275.216 125.321C275.216 124.794 275.018 124.349 274.623 123.987C274.194 123.641 273.395 123.294 272.225 122.948L268.22 121.787C266.16 121.21 264.554 120.361 263.4 119.24C262.263 118.103 261.694 116.431 261.694 114.222C261.694 111.998 262.592 110.185 264.389 108.784C265.279 108.076 266.391 107.548 267.726 107.202C269.077 106.856 270.519 106.675 272.052 106.658C273.584 106.625 275.084 106.741 276.551 107.004C278.017 107.252 279.327 107.622 280.481 108.117C280.498 108.282 280.506 108.446 280.506 108.611C280.522 108.776 280.531 108.949 280.531 109.13C280.531 110.861 280.16 112.484 279.418 114H275.265C274.804 113.192 274.515 112.377 274.4 111.553C273.428 111.322 272.48 111.207 271.557 111.207Z" fill="white"/>
</svg>
